<svg xmlns="http://www.w3.org/2000/svg" xmlns:xlink="http://www.w3.org/1999/xlink" version="1.1" style="" xml:space="preserve" width="60" height="60"><rect id="backgroundrect" width="100%" height="100%" x="0" y="0" fill="none" stroke="none"/>
















<g class="currentLayer" style=""><title>Layer 1</title><g id="svg_1" class="selected" fill="#ffffff" fill-opacity="1">
	<rect x="20" y="12" style="" width="10" height="45" id="svg_2" fill="#ffffff" fill-opacity="1"/>
	<rect x="33" y="43" style="" width="10" height="14" id="svg_3" fill="#ffffff" fill-opacity="1"/>
	<rect x="46" y="34" style="" width="10" height="23" id="svg_4" fill="#ffffff" fill-opacity="1"/>
	<rect x="7" y="20" style="" width="10" height="37" id="svg_5" fill="#ffffff" fill-opacity="1"/>
	<path style="" d="M3,60c-0.553,0-1-0.447-1-1V1c0-0.553,0.447-1,1-1s1,0.447,1,1v58C4,59.553,3.553,60,3,60z" id="svg_6" fill="#ffffff" fill-opacity="1"/>
	<path style="" d="M59,58H1c-0.553,0-1-0.447-1-1s0.447-1,1-1h58c0.553,0,1,0.447,1,1S59.553,58,59,58z" id="svg_7" fill="#ffffff" fill-opacity="1"/>
</g><g id="svg_8">
</g><g id="svg_9">
</g><g id="svg_10">
</g><g id="svg_11">
</g><g id="svg_12">
</g><g id="svg_13">
</g><g id="svg_14">
</g><g id="svg_15">
</g><g id="svg_16">
</g><g id="svg_17">
</g><g id="svg_18">
</g><g id="svg_19">
</g><g id="svg_20">
</g><g id="svg_21">
</g><g id="svg_22">
</g></g></svg>